<svg width="89" height="35" viewBox="0 0 89 35" fill="none" xmlns="http://www.w3.org/2000/svg">
<path d="M26.48 19.88C28.112 19.88 29.696 19.784 31.28 19.592C32.816 19.448 34.448 19.064 36.176 18.536C37.904 18.008 39.392 17.336 40.688 16.52C41.984 15.704 43.04 14.6 43.856 13.208C44.672 11.816 45.104 10.184 45.104 8.408C45.104 3.272 41.072 0.679998 33.056 0.679998H8.672C8 0.679998 7.664 0.871999 7.664 1.256C7.664 1.64 8.048 1.832 8.864 1.832C10.4 1.832 11.216 2.456 11.312 3.656C11.36 4.376 11.216 5.528 10.88 7.16L6.32 28.232C6.272 28.328 6.224 28.616 6.176 29.048C6.08 29.48 6.032 29.768 5.984 29.864C5.936 30.008 5.888 30.248 5.792 30.632C5.696 31.064 5.6 31.304 5.552 31.4C5.504 31.544 5.408 31.736 5.264 32.024C5.12 32.36 5.024 32.552 4.88 32.648C4.736 32.792 4.592 32.936 4.4 33.128C4.208 33.32 4.016 33.464 3.776 33.512C3.536 33.608 3.296 33.704 3.008 33.752C2.72 33.8 2.432 33.848 2.096 33.848C1.088 33.848 0.56 34.088 0.56 34.616C0.56 34.856 0.848 35 1.472 35H23.888C24.512 35 24.8 34.808 24.8 34.472C24.8 34.04 24.272 33.848 23.216 33.848C21.44 33.848 20.528 32.984 20.528 31.304C20.528 30.92 20.72 29.768 21.056 27.8L22.592 19.88H26.48ZM24.896 9.176C25.472 6.44 26 4.52 26.528 3.416C27.056 2.36 27.872 1.832 28.976 1.832C30.08 1.832 30.752 2.408 30.896 3.512C31.04 4.616 30.896 6.248 30.368 8.408L29.744 11.576C29.744 11.624 29.744 11.72 29.696 11.816C29.648 11.912 29.648 12.008 29.648 12.056C29.648 12.104 29.648 12.2 29.6 12.296C29.312 13.688 29.12 14.696 28.976 15.272C28.832 15.848 28.592 16.472 28.256 17.096C27.92 17.768 27.488 18.2 27.008 18.392C26.48 18.632 25.808 18.728 24.992 18.728H22.88L24.896 9.176ZM66.7554 8.12C66.8034 7.976 66.8994 7.544 67.0434 6.872C67.1874 6.2 67.2834 5.72 67.3314 5.384C67.3794 5.096 67.5234 4.664 67.7634 4.136C68.0034 3.608 68.2434 3.176 68.4834 2.888C68.7234 2.648 69.0114 2.408 69.4434 2.168C69.8754 1.928 70.3074 1.832 70.8354 1.832C72.2754 1.832 72.9954 2.648 72.9954 4.232C72.9954 5.384 72.8034 6.968 72.3714 8.984C71.9394 11.048 71.5074 12.632 71.0754 13.832C70.6914 14.936 70.1634 15.704 69.5394 16.04C68.8674 16.376 68.0034 16.568 66.8994 16.568H65.0274L66.7554 8.12ZM49.5234 23.96C48.6114 28.184 47.8434 30.872 47.1234 32.072C46.4034 33.272 45.2994 33.848 43.8114 33.848C43.0914 33.848 42.7554 34.088 42.7554 34.52C42.7554 34.856 43.0434 35 43.5714 35H64.3554C65.3634 35 65.8914 34.808 65.8914 34.424C65.8914 34.04 65.6034 33.848 65.0754 33.848C63.9714 33.848 63.2034 33.704 62.7714 33.464C62.3394 33.224 62.1474 32.648 62.1474 31.784C62.1954 30.968 62.5794 28.712 63.2994 25.016L64.7874 17.72H67.0914L69.2514 32.504C69.3954 33.512 69.5874 34.136 69.8274 34.472C70.0194 34.808 70.4034 35 70.9794 35H87.2994C88.0674 35 88.4514 34.808 88.4514 34.472C88.4514 34.184 87.9714 33.992 87.0114 33.848C86.0034 33.656 85.2834 33.272 84.8514 32.744C84.3714 32.216 83.8914 31.352 83.4594 30.2C82.2114 26.984 81.5874 24.296 81.5874 22.232C81.5874 21.32 81.8274 20.552 82.2594 19.928C82.6914 19.304 82.8834 18.968 82.8834 18.92C82.8834 18.632 82.7394 18.488 82.4034 18.488L81.6834 18.824C81.1554 19.064 80.4354 19.256 79.5234 19.496C78.5634 19.736 77.5554 19.832 76.4514 19.832C73.8114 19.832 71.4114 19.112 69.1554 17.672L69.2514 17.576C70.5474 17.576 71.7954 17.528 72.9954 17.432C74.1954 17.336 75.5394 17.144 77.0274 16.904C78.4674 16.664 79.8114 16.232 81.0114 15.704C82.2114 15.176 83.3154 14.552 84.3234 13.784C85.3314 13.064 86.0994 12.056 86.6754 10.856C87.2514 9.656 87.5394 8.264 87.5394 6.776C87.5394 5.864 87.3954 5 87.0594 4.28C86.7234 3.56 86.2914 3.032 85.6674 2.6C85.0434 2.168 84.3714 1.832 83.6994 1.544C83.0274 1.304 82.2114 1.112 81.2994 0.967998C80.3874 0.823999 79.5714 0.775997 78.9474 0.727998C78.2754 0.679998 77.5074 0.679998 76.6434 0.679998H51.2994C50.3394 0.679998 49.8594 0.871999 49.8594 1.256C49.8594 1.64 50.1474 1.832 50.6754 1.832C51.6834 1.832 52.4034 1.976 52.8354 2.264C53.2674 2.552 53.5074 3.032 53.5554 3.752C53.6034 4.376 53.4594 5.336 53.2194 6.728L49.5234 23.96Z" fill="#E53E3E"/>
</svg>
