<?xml version="1.0" encoding="utf-8"?>
<!-- Generator: Adobe Illustrator 22.1.0, SVG Export Plug-In . SVG Version: 6.00 Build 0)  -->
<svg version="1.1" xmlns="http://www.w3.org/2000/svg" xmlns:xlink="http://www.w3.org/1999/xlink" x="0px" y="0px"
	 viewBox="0 0 1920 1083" style="enable-background:new 0 0 1920 1083;" xml:space="preserve">
<style type="text/css">
	.st0{fill:#FFEBB8;}
	.st1{fill:#FF3333;}
	.st2{fill:#FF0000;}
	.st3{fill:#FFB98A;}
	.st4{fill:#CC9966;}
	.st5{fill:#996633;}
	.st6{fill:#663333;}
	.st7{fill:#FF6633;}
	.st8{fill:#CC3300;}
	.st9{fill:#990033;}
	.st10{fill:#660000;}
	.st11{fill:#003300;}
	.st12{fill:none;}
</style>
<g id="Layer_1">
	<g>
		<rect y="-4" class="st0" width="1948" height="1099"/>
	</g>
</g>
<g id="Layer_10">
	<circle class="st1" cx="1288.5" cy="344.5" r="199.5"/>
</g>
<g id="Layer_2">
	<circle class="st2" cx="1288" cy="344" r="156"/>
</g>
<g id="Layer_3">
</g>
<g id="Layer_4">
	<g>
		<path class="st3" d="M1948,1119H0c0-120.1,0-240.1,0-360.2c0-10.6,0-21.2,0-31.8c649.3,0,1298.7,0,1948,0V1119z"/>
	</g>
</g>
<g id="Layer_6">
	<g>
		<path class="st4" d="M1948,1119H0V767c15.5,7,42.2,18.4,76,30c328.5,113.1,605-2.8,1037.5-36.5c24-1.9,120.8-9.1,248-6
			c85.2,2.1,127.9,3.1,172,12c120.4,24.2,146.3,66.6,244.5,78.5c42.7,5.2,99.8,4.6,169.5-16.5c0.1,83,0.3,165.9,0.4,248.9"/>
	</g>
</g>
<g id="Layer_7">
	<g>
		<path class="st5" d="M1934,1181H-14V829c171,71.2,310.9,87.5,404,90c238.2,6.4,391.7-71.6,709.5-96.5c113.3-8.9,198.5-7.1,248-6
			c85.6,1.8,128.4,3.9,172,12c138.4,25.7,164.3,85.7,270.5,90.5c62.8,2.8,113.9-15.4,143.5-28.5
			C1933.7,987.3,1933.8,1084.2,1934,1181z"/>
	</g>
</g>
<g id="Layer_8">
	<g>
		<path class="st6" d="M-14,1073.3V926c174.1,74.6,316.1,90.9,410,93c236.7,5.3,389.6-74.9,703.5-99.5c56.2-4.4,140-17.4,248-6
			C1471,926.6,1580,963,1580,963c81.3,27.2,96,43.4,150,52c83,13.3,155.4-7.7,203.5-27.5c0.2,96.8,0.3,193.7,0.5,290.5H-14v-184.5"
			/>
	</g>
</g>
<g id="Layer_9">
	<path class="st7" d="M0,319c256.7-105.9,529-61.2,679.5,105.5C776.4,531.8,796.9,661.1,802,727c-267.5-0.2-535-0.3-802.5-0.5"/>
	<path class="st7" d="M1920,727c0-201.3,0-402.7,0-604c-6.6-8-16.9-18.5-32-26c-67.1-33.6-157.6,26.1-200,54
		c-184.5,121.7-279.2,520.1-292,576"/>
</g>
<g id="Layer_5">
	<path class="st8" d="M-0.5,411c33.2-19,82.7-42.5,146.5-56c53.1-11.2,99.5-12,134-10c29.6,2.1,75.8,5.9,132,13
		c233.2,29.6,360.3,81.3,541,134c589.4,171.8,868.9,97,937,77c18.7-5.5,33.9-10.5,44-14c0,56,0,112,0,168
		c-649.3,4.7-1298.7,9.3-1948,14"/>
</g>
<g id="Layer_11">
	<path class="st9" d="M1948,449c-47.4-42.7-86.3-47.9-106-48c-100.5-0.7-208.6,126.9-240,324.4c110.7-0.1,221.3-0.3,332-0.4"/>
</g>
<g id="Layer_12">
	<path class="st10" d="M8,736.8C36.2,695.7,174.9,502.4,418,469c168.7-23.2,305.1,42,372,74c119.9,57.3,200.2,133.4,246,184"/>
</g>
<g id="Layer_13">
	<path class="st11" d="M1023,622c-3.5,0.3-5.8,3.5-6.1,8.7c-0.3,6.1-0.3,12.3-0.8,18.4c-0.1,1.5-1.7,3.6-2.9,3.9
		c-1.2,0.3-3.1-1.3-4.2-2.5c-0.8-0.8-1.1-2.3-1.2-3.5c-0.4-3.5-0.7-7-0.7-10.6c-0.3-17.8-0.4-35.7-0.8-53.5c0-0.8,0-1.6-0.1-2.4
		c-0.2-4.7,0.8-11.4-3-15c-1.2-1.2-2.6-1.8-4-2c-2.6-0.4-5.4,0.5-7.4,2.2c0.6,0.2,1.1,0.7,1.1,1.4c0,0.8-0.7,1.5-1.5,1.5
		c-0.6,0-1.1-0.4-1.4-0.9c-0.2,0.3-0.4,0.7-0.6,1.1c-2.1,4.4-2.3,9.6-2.3,14.3c0,13.8,0.3,27.6,0.5,41.5c0,3.4,0.1,6.9-0.6,10.2
		c-0.3,1.5-2.1,3.8-3.3,3.9c-1.5,0.1-4.1-1.2-4.7-2.5c-0.6-0.2-1-0.7-1-1.4c0-0.3,0.1-0.7,0.3-0.9c-0.9-3.5-1.4-7.2-2-10.8
		c-0.3-2.2-0.1-4.6-0.2-6.8c-0.3-5.2-2.9-8.5-6.9-8.8c-5.2-0.4-7.9,5-8.3,9.4c-0.6,8-1,18.1,2.5,25.6c3,6.4,8.4,11.2,14.7,14.3
		c0.2-0.6,0.7-0.9,1.4-0.9c0.8,0,1.5,0.7,1.5,1.5c0,0.4-0.1,0.7-0.4,1c4.5,3.3,6.1,8.4,6.2,14.1c0.3,17.5,0.6,34.9,0.6,52.4
		c0,4.4,1,7.8,4.3,10c0.2-0.1,0.4-0.2,0.7-0.2c0.7,0,1.4,0.6,1.5,1.3c0,0,0,0,0.1,0c2.3,0,4.6,0,6.9,0c4.8-2.1,6.4-5.7,6.3-11
		c-0.2-12.9,0-25.8,0.1-38.8c0-2.6,0.3-5.2,0.6-7.8c0.4-3.7,2.7-5.7,6.1-6.6c1.4-0.4,2.9-0.5,4.4-0.9c1.7-0.5,3.3-1.1,4.8-1.8
		c-0.1-0.1-0.1-0.3-0.1-0.5c0-0.8,0.7-1.5,1.5-1.5c0.4,0,0.8,0.2,1.1,0.4c2.7-2,4.8-4.8,5.7-8.6c2.3-9.6,2.8-19.4,0.7-29.2
		C1030.6,624.8,1027,621.7,1023,622z"/>
</g>
<g id="Layer_14">
	<rect y="-4" class="st12" width="1920" height="1077"/>
</g>
</svg>
