<?xml version="1.0" encoding="utf-8"?>
<!-- Generator: Adobe Illustrator 21.0.0, SVG Export Plug-In . SVG Version: 6.00 Build 0)  -->
<svg version="1.1" id="Desert" xmlns="http://www.w3.org/2000/svg" xmlns:xlink="http://www.w3.org/1999/xlink" x="0px" y="0px"
	 viewBox="0 0 646.4286 257" enable-background="new 0 0 646.4286 257" xml:space="preserve">
<path fill="#FFEEB7" d="M60.8333,23.8334c2.8185,2.2852,5.8121,5.3506,8.984,8.8479c17.5405-6.9684,33.7835-9.6696,44.016-2.8479
	c12.6864,8.4576,28.4763,20.6094,44.103,32.2521c25.8418-18.3143,46.8569-43.6804,81.397-13.2521c42,37,55,9.5,77.5,11
	s20,23,42.5,22.5c18.4987-0.4111,20.7784-14.6736,38.2308-6.9533c17.2379-16.4247,38.2071-34.1571,53.2692-22.5467
	c5.9865,4.6146,12.1907,10.3492,18.4187,16.3035C503.4012,49.4395,542.9996,18.1041,566.6735,0H5.0703C2.27,0,0,2.2701,0,5.0703
	v45.9265C17.5969,36.052,48.0485,13.4673,60.8333,23.8334z"/>
<circle fill="#FFF0E4" cx="322.6667" cy="92" r="81.7194"/>
<circle fill="#FEFCE8" cx="322.6667" cy="92" r="71.1217"/>
<g>
	<path fill="#FDD576" d="M69.8173,32.6813c-3.1719-3.4973-6.1655-6.5627-8.984-8.8479C48.0485,13.4673,17.5969,36.052,0,50.9968
		v22.7111C16.5742,61.6276,44.5386,42.7239,69.8173,32.6813z"/>
	<path fill="#FDD576" d="M520.8333,104.3334C538.4825,100.9943,610.7379,49.8763,646,62.9805V5.0703
		C646,2.2701,643.7299,0,640.9297,0h-74.2562c-23.6739,18.1041-63.2722,49.4395-97.4214,69.1368
		C487.9923,87.0536,506.9479,106.9603,520.8333,104.3334z"/>
	<path fill="#FDD576" d="M218.3333,96.8334c17.5-2,33.5-9.5,58-10.5s36.5,0,48.5,6s33,11,48,4.5
		c5.5862-2.4207,14.5018-11.7069,24.7308-21.4533c-17.4524-7.7203-19.7321,6.5422-38.2308,6.9533c-22.5,0.5-20-21-42.5-22.5
		s-35.5,26-77.5-11c-34.5402-30.4282-55.5552-5.0621-81.397,13.2521C182.9579,80.728,207.561,98.0645,218.3333,96.8334z"/>
</g>
<path fill="#FEC145" d="M140.3333,72.3334c6.2166-2.6642,12.0217-6.2924,17.603-10.2479
	c-15.6267-11.6428-31.4166-23.7946-44.103-32.2521c-10.2325-6.8217-26.4755-4.1205-44.016,2.8479
	C87.4654,52.14,110.6655,85.0482,140.3333,72.3334z"/>
<path fill="#FEC145" d="M8.2488,134.7924L0,133.4362v1.4639C2.4545,134.9938,5.1946,134.9687,8.2488,134.7924z"/>
<g>
	<path fill="#FEC145" d="M469.252,69.1368c-6.228-5.9543-12.4323-11.6889-18.4187-16.3035
		c-15.0621-11.6104-36.0314,6.1219-53.2692,22.5467c3.775,1.6699,8.2563,4.363,13.7692,8.4533
		C422.0496,91.7841,444.1798,83.5985,469.252,69.1368z"/>
	<path fill="#FEC145" d="M34.3333,130.8334c49-11,63,9,91,9s60-36,93.5-18.5s33.5,21.5,55,18.5s43-34.5,88-21.5s67,2,90.5,1.5
		s6,1,45.5,11s54,10.5,81,8c20.1026-1.8613,52.1185,3.2059,67.1667,5.9166V62.9805
		c-35.2621-13.1042-107.5175,38.0138-125.1667,41.3528c-13.8854,2.627-32.841-17.2798-51.5813-35.1965
		c-25.0722,14.4617-47.2025,22.6473-57.9187,14.6965c-5.5129-4.0903-9.9942-6.7834-13.7692-8.4533
		c-10.2289,9.7464-19.1446,19.0327-24.7308,21.4533c-15,6.5-36,1.5-48-4.5s-24-7-48.5-6s-40.5,8.5-58,10.5
		c-10.7723,1.2311-35.3754-16.1053-60.397-34.7479c-5.5812,3.9554-11.3864,7.5836-17.603,10.2479
		C110.6655,85.0482,87.4654,52.14,69.8173,32.6813C44.5386,42.7239,16.5742,61.6276,0,73.7079v59.7283l8.2488,1.3561
		C15.1901,134.3917,23.7584,133.2073,34.3333,130.8334z"/>
</g>
<path fill="#F79420" d="M646,164.7173v-4.1036l-37.6453,0.9847C622.3793,162.3404,636.7892,163.732,646,164.7173z"/>
<path fill="#F79420" d="M568.5681,162.6393l-16.3259,0.4271C558.2583,163.2005,563.6428,163.0247,568.5681,162.6393z"/>
<path fill="#F79420" d="M606.3822,161.4987c0.6564,0.0319,1.3138,0.065,1.9725,0.0999L646,160.6138v-15.3134l-13.1667,14.533
	L606.3822,161.4987z"/>
<path fill="#F79420" d="M42.8333,150.8334c9.1409-3.6183,17.7792-5.4188,28.0594-5.7419L8.2488,134.7924
	c-3.0543,0.1763-5.7944,0.2015-8.2488,0.1078v19.8262C9.3849,156.1305,26.5634,157.2736,42.8333,150.8334z"/>
<path fill="#F79420" d="M646,145.3004l0.4286-0.4731c-0.1404-0.0254-0.2852-0.0515-0.4286-0.0773V145.3004z"/>
<g>
	<path fill="#F79420" d="M578.8333,138.8334c-27,2.5-41.5,2-81-8s-22-11.5-45.5-11s-45.5,11.5-90.5-1.5s-66.5,18.5-88,21.5
		s-21.5-1-55-18.5s-65.5,18.5-93.5,18.5s-42-20-91-9c-10.575,2.374-19.1432,3.5583-26.0845,3.959l62.6439,10.2991
		c14.7866-0.4649,32.9949,2.1354,61.0086,6.8153c17.1969-4.9078,35.8715-6.2339,71.0782,3.7982
		c34.7545-2.5094,66.7385-9.1188,89.8537-6.8715c36,3.5,32,7,63-3.5s33-19.5,99-0.5c46.0809,13.2657,75.8204,17.7515,97.4088,18.233
		l16.3259-0.4271c2.7145-0.2125,5.2988-0.4842,7.7653-0.8059c7.4962-0.9778,18.5515-0.8929,30.0489-0.3347l26.4511-1.6653
		L646,145.3004V144.75C630.9518,142.0392,598.9359,136.972,578.8333,138.8334z"/>
</g>
<path fill="#F4742C" d="M471.3333,175.8334c0,0,16,7,72,4c51.8171-2.7759,76.6651-14.948,102.6667-0.1172v-7.8634
	c-20.0821,0.0723-94.7989,0.335-187.4918,0.5845C466.1644,174.4106,471.3333,175.8334,471.3333,175.8334z"/>
<path fill="#F4742C" d="M453.3876,171.1309l148.8793-9.3731l-33.6989,0.8815c-4.9252,0.3854-10.3098,0.5612-16.3259,0.4271
	L432.789,166.191C439.9998,167.8141,447.1971,169.5685,453.3876,171.1309z"/>
<path fill="#F4742C" d="M368.68,172.6585c4.9822-1.8018,9.251-3.5633,13.1358-5.1341l-129.6509,3.3915
	c2.2713,0.6765,4.481,1.3267,6.6185,1.9445C295.1274,172.8096,332.3408,172.739,368.68,172.6585z"/>
<path fill="#F4742C" d="M608.3547,161.5985c-0.6586-0.0349-1.3161-0.068-1.9725-0.0999l-4.1152,0.2591L608.3547,161.5985z"/>
<g>
	<path fill="#F4742C" d="M345.8333,179.3334c2.7357-0.6201,5.2944-1.263,7.7285-1.9177l-60.5213,3.8102
		C312.5474,184.627,326.6368,183.6846,345.8333,179.3334z"/>
	<path fill="#F4742C" d="M258.7834,172.8604c13.6033,3.9316,24.594,6.6807,34.2571,8.3655l60.5213-3.8102
		c5.7511-1.5469,10.7195-3.1664,15.1182-4.7571C332.3408,172.739,295.1274,172.8096,258.7834,172.8604z"/>
	<path fill="#F4742C" d="M602.267,161.7578l-148.8793,9.3731c1.8041,0.4553,3.5123,0.8919,5.1206,1.3065
		c92.6929-0.2496,167.4097-0.5123,187.4918-0.5845v-7.1354c-9.2108-0.9854-23.6207-2.377-37.6453-3.1188L602.267,161.7578z"/>
	<path fill="#F4742C" d="M77.3333,168.3334c20.967-3.8828,34.5466-9.8752,47.8221-14.3208l-54.2626-8.9211
		c-10.2802,0.3232-18.9186,2.1237-28.0594,5.7419C26.5634,157.2736,9.3849,156.1305,0,154.7263v11.7477
		C15.8455,170.4453,43.4329,174.6112,77.3333,168.3334z"/>
	<path fill="#F4742C" d="M252.1649,170.9159l129.6509-3.3915c11.1317-4.5011,19.1503-7.4288,32.0175-5.191
		c5.8295,1.0139,12.3976,2.3814,18.9557,3.8577l119.4531-3.1247c-21.5884-0.4815-51.3279-4.9672-97.4088-18.233c-66-19-68-10-99,0.5
		s-27,7-63,3.5c-23.1152-2.2473-55.0992,4.3621-89.8537,6.8715c3.3018,0.9409,6.7487,1.9814,10.3537,3.1285
		C228.3226,163.6027,241.0681,167.6107,252.1649,170.9159z"/>
</g>
<path fill="#F4742C" d="M131.9014,151.9067c-28.0137-4.6799-46.222-7.2802-61.0086-6.8153l54.2626,8.9211
	C127.4011,153.2606,129.6387,152.5524,131.9014,151.9067z"/>
<path fill="#F4742C" d="M606.3822,161.4987c-11.4974-0.5582-22.5527-0.6431-30.0489,0.3347
	c-2.4664,0.3217-5.0508,0.5934-7.7653,0.8059l33.6989-0.8815L606.3822,161.4987z"/>
<path fill="#F15B24" d="M202.9796,155.7049c-35.2067-10.0321-53.8813-8.7059-71.0782-3.7982
	c3.646,0.6091,7.4391,1.2493,11.4319,1.9266C163.3764,157.2335,183.6068,157.1037,202.9796,155.7049z"/>
<path fill="#F15B24" d="M543.3333,179.8334c-56,3-72-4-72-4s-5.1689-1.4227-12.8251-3.3961
	c-8.8466,0.0239-17.8567,0.0475-26.9988,0.0709l-77.9477,4.9074c-2.434,0.6547-4.9928,1.2976-7.7285,1.9177
	c-19.1965,4.3512-33.2859,5.2936-52.7928,1.8925l-1.7072,0.1075l-51.3867-8.4483c-22.3027,0.0272-44.1559,0.046-65.1431,0.0544
	L6.8333,177.3334L0,175.0556V198h646v-18.2838C619.9984,164.8854,595.1505,177.0574,543.3333,179.8334z"/>
<path fill="#F15B24" d="M239.9467,172.8851l51.3867,8.4483l1.7072-0.1075c-9.6631-1.6848-20.6537-4.4338-34.2571-8.3655
	C252.4751,172.8693,246.1935,172.8775,239.9467,172.8851z"/>
<path fill="#F15B24" d="M353.5618,177.4156l77.9477-4.9074c-20.4052,0.0522-41.4653,0.103-62.8295,0.1503
	C364.2813,174.2493,359.3129,175.8688,353.5618,177.4156z"/>
<path fill="#F15B24" d="M0,172.5027v2.5529l6.8333,2.2778l167.9703-4.3939C98.3756,172.9702,33.426,172.8618,0,172.5027z"/>
<path fill="#F15B24" d="M174.8036,172.9395c20.9871-0.0084,42.8403-0.0273,65.1431-0.0544l-8.6562-1.4232L174.8036,172.9395z"/>
<path fill="#F15B24" d="M458.5082,172.4373c-1.6083-0.4146-3.3165-0.8511-5.1206-1.3065l-21.8782,1.3774
	C440.6516,172.4849,449.6617,172.4612,458.5082,172.4373z"/>
<path fill="#F15B24" d="M381.8158,167.5244c-3.8848,1.5708-8.1536,3.3323-13.1358,5.1341
	c21.3641-0.0473,42.4243-0.098,62.8295-0.1503l21.8782-1.3774c-6.1905-1.5623-13.3879-3.3167-20.5986-4.9398L381.8158,167.5244z"/>
<path fill="#F15B24" d="M252.1649,170.9159l-20.8745,0.546l8.6562,1.4232c6.2468-0.0076,12.5284-0.0158,18.8367-0.0247
	C256.6459,172.2426,254.4362,171.5924,252.1649,170.9159z"/>
<path fill="#F15B24" d="M125.1554,154.0126c-13.2755,4.4456-26.855,10.438-47.8221,14.3208
	C43.4329,174.6112,15.8455,170.4453,0,166.4741v6.0287c33.426,0.359,98.3756,0.4675,174.8036,0.4368l56.4869-1.4776
	L125.1554,154.0126z"/>
<path fill="#F15B24" d="M231.2905,171.4619l20.8745-0.546c-11.0968-3.3052-23.8423-7.3132-38.8316-12.0825
	c-3.605-1.147-7.0519-2.1876-10.3537-3.1285c-19.3729,1.3988-39.6032,1.5286-59.6463-1.8715
	c-3.9929-0.6774-7.7859-1.3176-11.4319-1.9266c-2.2626,0.6457-4.5002,1.3538-6.746,2.1058L231.2905,171.4619z"/>
<path fill="#F15B24" d="M413.8333,162.3334c-12.8672-2.2378-20.8858,0.6899-32.0175,5.191l50.9732-1.3334
	C426.231,164.7148,419.6628,163.3472,413.8333,162.3334z"/>
<path fill="#AF3F25" d="M0,251.9297C0,254.73,2.27,257,5.0703,257h635.8594c2.8002,0,5.0703-2.27,5.0703-5.0703v-38.5963H0V251.9297
	z"/>
<rect y="205.3334" fill="#C65028" width="646" height="8"/>
<rect y="198" fill="#C65028" width="646" height="7.3334"/>
<path fill="#AF3F25" d="M1.3333,216.8334c0,0,38.5-12.5,55-4s50.5,19,81,14s47.5-24.5,88.5-15.5s36.5,22,79.5,14.5s34-22,72.5-13
	s12.8333,17.5,26.8333,10.5s30.1667-15,48.1667-11.5s11,5.6667,38.5,2.1667s-8-8.1667,28.5-2.1667s26.5,8.5,58.5,6.5
	s64.3334-12.5,67.6667-1l-14.6667,20.5l-612.5,6.5L1.3333,216.8334z"/>
</svg>
